<?xml version="1.0" standalone="no"?><!DOCTYPE svg PUBLIC "-//W3C//DTD SVG 1.1//EN" "http://www.w3.org/Graphics/SVG/1.1/DTD/svg11.dtd"><svg t="1486559686591" class="icon" style="" viewBox="0 0 1024 1024" version="1.1" xmlns="http://www.w3.org/2000/svg" p-id="2953" xmlns:xlink="http://www.w3.org/1999/xlink" width="200" height="200"><defs><style type="text/css"></style></defs><path d="M512 0C229.229714 0 0 229.229714 0 512 0 794.770286 229.229714 1024 512 1024 794.770286 1024 1024 794.770286 1024 512 1024 229.229714 794.770286 0 512 0L512 0ZM798.72 311.296 512.877714 609.572571 224.329143 311.296 798.72 311.296 798.72 311.296ZM204.8 354.706286 364.507429 517.412571 204.8 677.083429 204.8 354.706286 204.8 354.706286ZM224.877714 720.896 394.752 544.073143 512.219429 663.771429 627.968 544.073143 799.561143 720.896 224.877714 720.896 224.877714 720.896ZM819.2 677.083429 655.140571 516.973714 819.2 352.329143 819.2 677.083429 819.2 677.083429Z" p-id="2954"></path></svg>