<?xml version="1.0" standalone="no"?><!DOCTYPE svg PUBLIC "-//W3C//DTD SVG 1.1//EN" "http://www.w3.org/Graphics/SVG/1.1/DTD/svg11.dtd"><svg width="200" height="200" viewBox="0 0 200 200" version="1.1" xmlns="http://www.w3.org/2000/svg" xmlns:xlink="http://www.w3.org/1999/xlink"><defs><style type="text/css"><![CDATA[
@font-face { font-family: ifont; src: url("//at.alicdn.com/t/font_1442373896_4754455.eot?#iefix") format("embedded-opentype"), url("//at.alicdn.com/t/font_1442373896_4754455.woff") format("woff"), url("//at.alicdn.com/t/font_1442373896_4754455.ttf") format("truetype"), url("//at.alicdn.com/t/font_1442373896_4754455.svg#ifont") format("svg"); }

]]></style></defs><g class="transform-group"><g transform="scale(0.1953125, 0.1953125)"><path d="M898.380466 721.945593c-29.712719-20.327978-22.579251-14.464433-32.580023-26.960025-9.035794-11.264555-15.416108-26.421766-23.989367-41.083697-12.93459-22.155603-27.579125-44.910862-38.081317-64.916499-9.239432-17.584494-19.510356-19.316951-29.454845-28.600385-14.446014-13.516852-27.019377-26.213012-38.97978-29.995151-14.515598-4.605901-21.709441 6.928806-21.709441 6.928806-16.145725-14.125719-12.815887-14.051017-24.617677-19.017122-11.344373-4.797259-19.293415 7.867178-19.293415 7.867178s-7.534604-7.320733-13.878079-10.45205c-7.460925-3.673669-11.428284-4.124947-16.501836-6.173606-9.69685-3.918239-24.931832 6.844895-28.549219 11.749602-2.603291 3.532453-4.430916 11.468193-7.461949 17.619286-5.829775 11.873422-4.079922 22.082948-4.079922 22.082947s-19.4684-15.109116-30.372751-22.822798c-9.277294-6.535857-32.907481-16.000416-45.774533-22.646789-24.846898-12.822027-34.926464-11.096732-38.584784 2.505053-3.63376 13.601786 11.981892 33.534767 22.37766 42.608424 5.360078 4.672416 12.45466 10.259668 19.803022 10.531867 0 0 2.489704 7.153934 8.217149 12.427031 5.733585 5.248537 13.379729 14.789844 18.764365 19.266809 7.544837 6.274914 7.979742 5.304819 10.778485 8.137331 3.063779 3.091408 1.314948 6.399757 9.447162 15.299451 9.215896 10.073426 16.229636 27.759227 21.681812 39.407521 4.632507 9.887184 8.821923 19.572778 11.698437 27.799137 3.969405 11.242042 4.498454 20.327978 5.205558 25.932625 0.518816 4.204765 2.290159 7.027044 2.290159 7.027044s-2.453888 1.24127-4.853541 3.706415c-2.387373 2.454912-2.939959 5.858428-2.939959 5.858428l-6.502087-0.698918s-0.011256-2.230808-2.550079-4.859681c-2.764973-2.895957-1.202385-1.659803-6.998391-6.78452-2.354628-2.086521-8.245801-7.629771-10.30981-9.683547-5.440919-5.439896-10.711969-5.40715-10.71197-5.40715s-6.42227-12.859889-14.05818-21.760606c-7.442506-8.680706-15.705704-12.30321-29.990035-16.321734-11.79872-3.329838-19.232017-1.895163-25.495674 2.708691-7.810896 5.722328-6.715959 17.720593-0.012279 27.444049 3.871167 5.614881 7.91732 9.927093 11.17962 13.595647 14.176884 15.902178 13.380752 31.219026 17.34197 38.217416 5.102205 9.069563 9.93835 9.650801 17.60803 18.059308 5.417383 5.942339 13.758352 11.349489 20.022009 18.23941 9.256828 10.134825 17.037025 20.370956 19.904329 22.494316 15.130605 11.219529 53.844326 14.954597 93.473904 25.417903 22.315238 5.91471 40.186258-3.391237 59.046815 2.642177 11.570523 3.689019 22.439058 14.299681 36.298717 21.806655 57.427944 31.082926 127.244033-65.408709 133.37773-114.028033 1.467421-11.550057-5.563716-22.002107-10.18599-25.168216z m-422.632623-30.423917h-96.085382v45.745881h96.085382v-45.745881z m0-67.63133h-96.085382v33.815154h96.085382v-33.815154z m-96.085382 204.881251h96.085382V761.13822h-96.085382v67.633377z m47.539736 130.295531l86.683245-116.369357H340.518952l86.683245 116.369357z m0-895.733684L340.518952 179.704848h173.367513l-86.684268-116.371404z m48.545646 221.790362h-96.085382v45.757137h96.085382v-45.757137z m0-91.503017h-96.085382v67.632353h96.085382v-67.632353z m0 171.077354h-96.085382v33.81413h96.085382v-33.81413z" fill="#ecf0f1"></path></g></g></svg>